<mxfile host="Electron" modified="2023-05-03T03:01:13.807Z" agent="Mozilla/5.0 (Windows NT 10.0; Win64; x64) AppleWebKit/537.36 (KHTML, like Gecko) draw.io/21.1.2 Chrome/106.0.5249.199 Electron/21.4.3 Safari/537.36" etag="jycleu3IGOSEGW9TA3nZ" version="21.1.2" type="device">
  <diagram name="Page-1" id="ae-CnHSwTdyB3JdvPHUM">
    <mxGraphModel dx="95" dy="547" grid="1" gridSize="10" guides="1" tooltips="1" connect="1" arrows="1" fold="1" page="1" pageScale="1" pageWidth="850" pageHeight="1100" math="0" shadow="0">
      <root>
        <mxCell id="0" />
        <mxCell id="1" parent="0" />
        <mxCell id="nEPNqR9Pa5e6juEOV0MW-55" value="" style="rounded=1;whiteSpace=wrap;html=1;fillColor=#bac8d3;strokeColor=#23445d;sketch=1;curveFitting=1;jiggle=0;sketchStyle=rough;" parent="1" vertex="1">
          <mxGeometry x="891" y="320" width="469" height="80" as="geometry" />
        </mxCell>
        <mxCell id="nEPNqR9Pa5e6juEOV0MW-29" value="Processors" style="text;html=1;align=center;verticalAlign=middle;resizable=0;points=[];autosize=1;strokeColor=none;fillColor=none;rotation=-45;fontSize=18;" parent="1" vertex="1">
          <mxGeometry x="1344" y="209" width="110" height="40" as="geometry" />
        </mxCell>
        <mxCell id="nEPNqR9Pa5e6juEOV0MW-30" value="" style="endArrow=none;html=1;rounded=0;" parent="1" edge="1">
          <mxGeometry width="50" height="50" relative="1" as="geometry">
            <mxPoint x="1356" y="190" as="sourcePoint" />
            <mxPoint x="1435" y="190" as="targetPoint" />
          </mxGeometry>
        </mxCell>
        <mxCell id="nEPNqR9Pa5e6juEOV0MW-31" value="" style="endArrow=none;html=1;rounded=0;" parent="1" edge="1">
          <mxGeometry width="50" height="50" relative="1" as="geometry">
            <mxPoint x="1356" y="270" as="sourcePoint" />
            <mxPoint x="1435" y="270" as="targetPoint" />
          </mxGeometry>
        </mxCell>
        <mxCell id="nEPNqR9Pa5e6juEOV0MW-1" value="" style="group" parent="1" vertex="1" connectable="0">
          <mxGeometry x="891" y="100" width="79" height="80" as="geometry" />
        </mxCell>
        <mxCell id="nEPNqR9Pa5e6juEOV0MW-2" value="&lt;font style=&quot;font-size: 18px;&quot;&gt;T&lt;sub&gt;0&lt;/sub&gt;&lt;/font&gt;" style="ellipse;whiteSpace=wrap;html=1;fillColor=#d5e8d4;verticalAlign=top;strokeColor=#82b366;" parent="nEPNqR9Pa5e6juEOV0MW-1" vertex="1">
          <mxGeometry width="79" height="80" as="geometry" />
        </mxCell>
        <mxCell id="nEPNqR9Pa5e6juEOV0MW-3" value="" style="shape=stencil(lZ1J0hzHDYVPw21FzsNalu+hCFEWw7KooCQPtzdgunp46P4quJPpfH9XZSKBh7E+1O9+//mH3z5+KOn3P758/vvHf3368Y+fP9S/fCjl068/f/zy6Q/7rw/1+w/1u58+f/n4ty+f//z1x6//+7cffKX/1z8+/9P/wr+/4vY6dnVUSf/5+i/pGPl///DXr+t/+fTr4/p69PK0Ph+pwvp0tC7ra3m/fs2jLllPz7Pa0fR5doL1+SjtaX05/+Hl+jmPtWR9n7C+HT3Lenqeaduxn9bXo8D7jnXUKus77P/o55+7r1+03rbjeT/bkWF93/r37UBgP/tQeWjH7LC+HvP5ffuRYP+7ne+W9f8XqJfr21J57vg8rR/9WR7GkWl9OUaX9QPkoe5jPD/PPNKG9ePoQ9bj369Hm0/rF//9pM+/UP7t5/ezPOwjwf748UxZ3+jv1yMlWb/g+U2dddE/6SggEHkdrSpggMbK9gbPT5RNBgcATCMUBWzYIwM00YmmhOCQs91xeenbtr0GmFBWBdAv2LbOANhw711NPctpNsUCu2T3ZGYFVJKMfeypgE6iXVVVGGCB7rW7Np9tR2Zl1NKRAqDAI7VwOw3QSb2MYxUFLALsIBqmwEihlmMmBTR4h96PNhSwQJb6OjXoDTDxkUbQSQboIHwjKA0DLBA+s5pVtnUdhczmDDRknQL/GrBV7xmAFNm8KZUbYKOamUWZnQEGUZ12MokbdUmoNeY40lIAGVsjU6KMDUCiMQM7NXqX4RdWUvri/BF2aWU9aSNsRHhWIEgGGAzYz2rGdGEGg7LqUYcC6OAMoJzTdCsD8lDAoG0t59+7Afq5De/OYScFTDrpHc6B9ZLJUq4KuBDvJYB5yu+7C6S7NNEo2p3OWwF0p03NCFkydlVI85WTnD4AiJz0uK23K/WOn4uqNLtKms/sw8oK6PBILWg+A0yyouOo4sKYXqJfqKfkPABIVZqdrk0BDUSjTvViDDDhkWpT+lMz6lb7v2cAkGjYuYphNwBZILuQolsNgFTa+NKzaNSColGS8lYDECMzEyh8yQDIjHt46YoEKzJjA5D2Nmq+mgI2/MI+T+m23lQr6THV3ZUd1nHu4G39QB49zyN6WL/g7+8gdxMdPt9RkYqFitvYoNAMA5DL57RlKIB8dBdUAWwMUtmmrqkAumyuHpoCGpyCCUHaCiC5s1dMRQEUuGlZr7N7H+DNtGB8DEDcyhR3/IVKsR67KUMBHR7JPIHSFUCsYdz84AcAKYwRHF3bt0K8JMQPDEDSajSjBsCEg4sRxsbhAKOs+Vk0WsGY4WrK0w1A0rqGOlgGoHdY63ziG4ADDjvrfTBA5biz8JLGins3pUqt8SMNNW+NQ5nbSEAAUKx3L6UZdgcbAXY46X7Gjt4BxOIaeSIiY4AhSmByPH+rd2+ATr+w1P1pCyOmvktLAYMsbjChpqkK7dJQUmwAEm+XpeeD6wm1xi5KM/otZvEakE4jewNkdE7WVN1qADrp1dVv7Tdq89bRlch7Of2bd866WFEDUKRodr1AvaBhjx6ZmRjyBMZSG2cAdLC62od+kV8pId9QjwnnYDZOor+9naz3XTxNH6mdOaB3HllvCiBVadIvNs4Am/yloUqgf2tc8/5W7zwyif4aYLNHJmrGPNkKsuQ0uymAlIC5IkOkdWIcxwPSTQHkGTtXD7+wwSiWYOOcQcEu3UNVDwAKmnj65FkZ942s0qOYVQEUts9BGQ/jrZQ+6Uqwxk1Y3jqJz480bknX14CpIY3BSeWS1QKZWsBcRTvzBg8AiuN4qKorgLS3eSi6SxUNu7m1QkMHZ6LtxolbZgBMtWZ1XQ2AyY2uQXUDUJTFFFkKAHJ2XVXKLjFJ7CHgYIBMLs3WMKUBCnkoQXsPpqFmsuZSAN1pM4pzKoByRjMrSbTfpCs6m4b4vAyBg7lCTgxAnuLcSn8MsEA0jM0IqzRXEGPk7QWA2My6GagHAAmfUTgpRRkTd8m8LIlrGIA039rq+NnZ40tvDbUaABMDS5OuHgRnQF4KwATN0EyzueQU8FpNr+jkBP4Kht0EntK6c4dHymjY51BFNjNG4Y3ozmdVaf9CZVO+60kBdHB+5Z/PYVYs1HAjuxXQSPOFIIIBJhHdolpjNqxNMb9Q+NK8VYO9o6HiDhiAUg91q+NnPkumsH0/Ve8DoDGrTAGAwc1AsDwNS1yjK5txcSRWWVSRzYEHZyRRFJnpc3okj/NPBSAjG2rYDUCBwXyT/htgITnJ+bRoD4AJaiZksUwrUFhjqqK09RgLPXMx5/rFdUtNDeLiwswgFStjbiaEZhdHA7zMaiqAAhR2ZMJjVkFP2ktjZIsqXk4vyegKIKEwXi93zQAUiipdpcgAm7N24jmY+aJ6VM8LFgVgqrIrB1gNb3MNUcp1EQ3ImtAxKoSJhKZeqAHo+rep6RYDUG6zJ3UqDUC3uVe1n07nqCwqOAJGVOil3X4GAHk/d8r8AKDgr9cgCWDiIxkvkgCFAYgpmQGXML/TOeIxI2gNTt15MkQeaaOxMi0toajN9HBO9a8MgFysK+ve+WqXIoAukJ2DFPHtwj5iUGSbC0JHyPUbgO6D+/7yCxeR1hTqcivaK6eHUwFUxNdDBakBJhUiplBa3NAkttB7YAByyFrI6u6G0WIPazYFkI2rU9X9Zte7NiU+BqgEyEpMDECeQwk1eXtgSLCMUxAeABgdq2pQ9gUBzWrj9sSoTA75yj25BiHkjffE+FsO1WZ7MV8K9Gcvtg+nXryt31jT2oOS2Vix3YNsbyx8aaEMPnH5aDzlzVxJ00u+nqKy2lnjG4Trc9ggvAiniD2sx4Irjch6LpWk+sWBUblFyLFsLmJpmt/z9SwQ4Xl4vVQS+XqqhgzqmjMHQwMSm1tHRlB0Gz2eoR6Yrado29AU7uaKnaGev8szmNiQsPL16BFqx8XlhVQNxD9Qg9bdyKTKiwtPOrRoqHBzmr680FjUC1UCx9noShWN7VwI6LeuD6WDZgEoJOd9RqKBJm5QrhreNQCpFHOxJfK/B+roHMoS9sBLFvuzvA6H2ERVO7M7XjOnH4HgUEjOzkGqDPZF0C8K6oWL3cM5cODSfHIJUW9OO5lPLuHdXbkvqGtIzuk4N07qS1cMUfesPQTuUhB/b+HgCuZ4+gyUqDCFSsFTK2yiok0u7BZ1bQkwX5AizmMG1pI5ExZq1w2APnkOHZpcZOnJiACgKzpDv6I58fgLWW/c2lhaMXYI/S2sr/JtnQog8jKaxrTXxObAEToi18Q73YNbZAAsBKoh9DfwTnsJWVMAZYbtTkvnkQFIVbauzYEGoJaAFoO8A1+67vALrO69ITrECmmCQH0V+rtoNF0BQDfOmWEI8mKnRSgfNAD2IG+tpFtcI+ZNnwFA5+DuqQgfZ/PiuVW8DiOERyv31mpdhadxaU/PGMXDelIAKQQiM8pdUu9xcZFRiJfdW+berFexvk3WeH1gahYmk/micxDmRttZtcHP81+Yz5JKfc+vkZnSihBP4FEFrRZIzYnhjZw0jDUvG11SAJAZjIMB5sBr73VnRQEYUQiN0B5w5y58LXXggvIyQplAx13yTrutAIple2eMvENDL7IuvfkGIAXfgp9nAApNtxHuQsU6zJ7UTZpMno3a6klzsV1fajfnLRz2jqlGAJUveWfMUABdaC/DkW29aHSpaqR8+A0lg0JHhmesKKG1lBZ6+w4ltZNaZn8rAlR9aaOipIZXU6/Hy++oZquqEzMmutwrhzrMiU7M3KEEa2BZpbdaNwUQLfRW66EAbOYuyoXvGau3DkAA0DuMEQo3ucJwxBLdjh1KI6t9cOeP7vTUAKP9JkbkQ82WV3FRtWoOu8R9/i1WPjdMyrUWDq5xKj9pvnY09BhqGBg1GnbG1JueuwEqhyWXJuW8zJjMbqi1GZXtdNahXYO73XLogbqo3jauoe9Q8D4Ym5ExR16yTmX3OdxpzmobwdK6ZK6SzCFfO7gO0wBiUAare+d8UwGYJyxKTjrnAHxbhwLwpLsq43uD0DuSqD1QC3POeYdGl8WTl7KmkE1TUZK6hFhJn9jX6KmY0OhCYTRj90J0vXyAnPqiN65zYKJ2tXGdC8rrDN09HZmAaT5tj+uoyLxaVc6hcfvDVB+3szLuSRMIV71osY+LOzL6CN1uF2GAUDbYK9ZVjuDS+EQSJrpidjsP8Bmh18D7GimcWTWG2wtGuufQgGnPmMs3CicF5f2ierOo09R5nIjxVm384s76FWYo9AvuvZRr9ITO684KaJyv26FioPEciF1D3ztP8fL6oKQAStntpuMd28QwS2w99lvOjyT3oXEQwQDaDT1QWne4cY0jrDtkTVpHL2uHXgNvxaf5A6Fs0JQntgM19eMaD45ZoUyqMSObOwxSLZj5MSWg0wEKGvYZXPx2kb0K7XEGoHeIw2PbRfYq6+Sle3HwOx9IzyEjXzJNqjNFON3VQgt4S+hPt9A/5Jab4ktRWrnZv4bRlu1i3FTRYrKW8KRjNLQl7lXuYWQWF6OUHIZybYy/G2+V3FLlyl6j0pJBqBxhznHc1OIbp7vqg4i+JYR9H9LzJkQuevJilFIJo5pZ1Wctnais6bOGNSt3DmVluJWr7sNwOifVuD86auoiOqF8uN5qDl9rozCkrfJscA1dVx6C6wKXFUC6KIf2+8o2Ibcwo62gIcyhur0Wnr+cwjzxzFWPoTK8ssb2uj75hYSBgxJmFtYLfVpezPujvp7aw0knjimFqevlchqXWP+yMYPbgg9dNjoZLXR7eN0S+W5Jg+NlcVajqpnyYZNszCUCagAMmSbNQvs0ciIkVUv8fNw5O3s6onZiYtyj83Jwg5s3spKqwhVv5h1K3XDhzqHZ1GH1Wm6ey6uyxHOmvPtS3qFhrbd33XQF4DvEC1Q5WRRaRO+Ff2/fQV668FSDEYYRF241Cva/ZGSS3o08FIAfj4jizeOOZ4iAFq4KGPHzGhvLOEbVuToGIO/wPirlBuCWr741sJwvaFjoBrz3E78GhBbIzHMTeih2ydyf3JNG3jJ3QLcZZs8PHoIbviuSebKbO15hbjvOc1laqpi5BbKG6UOZW9drfjXdHozi/dsUDwDkGi0cHJfuuhsjosGlWTk+UkNy4p8I6ArAgUhx4H7jMvCk9Wi5oniH+mavC6fQnlq4XLhjMnwAoPDIzPClh4JR6BU+VpGxzj9+GCJz4U5WEp0TN3tVtT054YDNHL56YgD0HGYoxEcKYEpaG9zwgdz0SRUxHoHzA/2MDFFDP2MpX8Oofo0VNTglxj01qfzAggP3lPUzPlQZW0PB8eCoU9GijIt5d6HRgufrtxUGfaI/4sX3+pkmnD4RJqU0jNj2EcZkY3mSGX35+5xBHzWMQ8aJ7iMMDClYOTR2+MABytss4RsN2Ehj3HEIs+Po8dIwZ+aqoRK+DoLZ/NU1dJEx1LTCnAr+cId3OTRZT5Z+h+a8hPrH23WrrieTNzUPya1we2mC7eLvL/XR0tUYXakN5QDE3mrzEjr73lmn+4kDa7fS/IuvZKVQv5xQ4PaOG0SBrB2GvieMxe1Q5ZA46/Wt3z28XG//cf/I4k+ffvnl6zcaH/9//Sij/dPXDzrW7/8L);lineShape=1;shadow=0;sketch=0;" parent="nEPNqR9Pa5e6juEOV0MW-1" vertex="1">
          <mxGeometry x="18.02187500000003" y="14.545454545454541" width="8.541875000000001" height="50.9090909090909" as="geometry" />
        </mxCell>
        <mxCell id="nEPNqR9Pa5e6juEOV0MW-4" value="&lt;font style=&quot;font-size: 18px;&quot;&gt;P&lt;sub&gt;0&lt;/sub&gt;&lt;/font&gt;" style="whiteSpace=wrap;html=1;aspect=fixed;fillColor=#647687;fontColor=#ffffff;strokeColor=#314354;rounded=1;" parent="1" vertex="1">
          <mxGeometry x="890" y="190" width="80" height="80" as="geometry" />
        </mxCell>
        <mxCell id="nEPNqR9Pa5e6juEOV0MW-5" value="" style="group" parent="1" vertex="1" connectable="0">
          <mxGeometry x="981" y="100" width="79" height="80" as="geometry" />
        </mxCell>
        <mxCell id="nEPNqR9Pa5e6juEOV0MW-6" value="&lt;font style=&quot;font-size: 18px;&quot;&gt;T&lt;sub&gt;1&lt;/sub&gt;&lt;/font&gt;" style="ellipse;whiteSpace=wrap;html=1;fillColor=#d5e8d4;verticalAlign=top;strokeColor=#82b366;" parent="nEPNqR9Pa5e6juEOV0MW-5" vertex="1">
          <mxGeometry width="79" height="80" as="geometry" />
        </mxCell>
        <mxCell id="nEPNqR9Pa5e6juEOV0MW-7" value="" style="shape=stencil(lZ1J0hzHDYVPw21FzsNalu+hCFEWw7KooCQPtzdgunp46P4quJPpfH9XZSKBh7E+1O9+//mH3z5+KOn3P758/vvHf3368Y+fP9S/fCjl068/f/zy6Q/7rw/1+w/1u58+f/n4ty+f//z1x6//+7cffKX/1z8+/9P/wr+/4vY6dnVUSf/5+i/pGPl///DXr+t/+fTr4/p69PK0Ph+pwvp0tC7ra3m/fs2jLllPz7Pa0fR5doL1+SjtaX05/+Hl+jmPtWR9n7C+HT3Lenqeaduxn9bXo8D7jnXUKus77P/o55+7r1+03rbjeT/bkWF93/r37UBgP/tQeWjH7LC+HvP5ffuRYP+7ne+W9f8XqJfr21J57vg8rR/9WR7GkWl9OUaX9QPkoe5jPD/PPNKG9ePoQ9bj369Hm0/rF//9pM+/UP7t5/ezPOwjwf748UxZ3+jv1yMlWb/g+U2dddE/6SggEHkdrSpggMbK9gbPT5RNBgcATCMUBWzYIwM00YmmhOCQs91xeenbtr0GmFBWBdAv2LbOANhw711NPctpNsUCu2T3ZGYFVJKMfeypgE6iXVVVGGCB7rW7Np9tR2Zl1NKRAqDAI7VwOw3QSb2MYxUFLALsIBqmwEihlmMmBTR4h96PNhSwQJb6OjXoDTDxkUbQSQboIHwjKA0DLBA+s5pVtnUdhczmDDRknQL/GrBV7xmAFNm8KZUbYKOamUWZnQEGUZ12MokbdUmoNeY40lIAGVsjU6KMDUCiMQM7NXqX4RdWUvri/BF2aWU9aSNsRHhWIEgGGAzYz2rGdGEGg7LqUYcC6OAMoJzTdCsD8lDAoG0t59+7Afq5De/OYScFTDrpHc6B9ZLJUq4KuBDvJYB5yu+7C6S7NNEo2p3OWwF0p03NCFkydlVI85WTnD4AiJz0uK23K/WOn4uqNLtKms/sw8oK6PBILWg+A0yyouOo4sKYXqJfqKfkPABIVZqdrk0BDUSjTvViDDDhkWpT+lMz6lb7v2cAkGjYuYphNwBZILuQolsNgFTa+NKzaNSColGS8lYDECMzEyh8yQDIjHt46YoEKzJjA5D2Nmq+mgI2/MI+T+m23lQr6THV3ZUd1nHu4G39QB49zyN6WL/g7+8gdxMdPt9RkYqFitvYoNAMA5DL57RlKIB8dBdUAWwMUtmmrqkAumyuHpoCGpyCCUHaCiC5s1dMRQEUuGlZr7N7H+DNtGB8DEDcyhR3/IVKsR67KUMBHR7JPIHSFUCsYdz84AcAKYwRHF3bt0K8JMQPDEDSajSjBsCEg4sRxsbhAKOs+Vk0WsGY4WrK0w1A0rqGOlgGoHdY63ziG4ADDjvrfTBA5biz8JLGins3pUqt8SMNNW+NQ5nbSEAAUKx3L6UZdgcbAXY46X7Gjt4BxOIaeSIiY4AhSmByPH+rd2+ATr+w1P1pCyOmvktLAYMsbjChpqkK7dJQUmwAEm+XpeeD6wm1xi5KM/otZvEakE4jewNkdE7WVN1qADrp1dVv7Tdq89bRlch7Of2bd866WFEDUKRodr1AvaBhjx6ZmRjyBMZSG2cAdLC62od+kV8pId9QjwnnYDZOor+9naz3XTxNH6mdOaB3HllvCiBVadIvNs4Am/yloUqgf2tc8/5W7zwyif4aYLNHJmrGPNkKsuQ0uymAlIC5IkOkdWIcxwPSTQHkGTtXD7+wwSiWYOOcQcEu3UNVDwAKmnj65FkZ942s0qOYVQEUts9BGQ/jrZQ+6Uqwxk1Y3jqJz480bknX14CpIY3BSeWS1QKZWsBcRTvzBg8AiuN4qKorgLS3eSi6SxUNu7m1QkMHZ6LtxolbZgBMtWZ1XQ2AyY2uQXUDUJTFFFkKAHJ2XVXKLjFJ7CHgYIBMLs3WMKUBCnkoQXsPpqFmsuZSAN1pM4pzKoByRjMrSbTfpCs6m4b4vAyBg7lCTgxAnuLcSn8MsEA0jM0IqzRXEGPk7QWA2My6GagHAAmfUTgpRRkTd8m8LIlrGIA039rq+NnZ40tvDbUaABMDS5OuHgRnQF4KwATN0EyzueQU8FpNr+jkBP4Kht0EntK6c4dHymjY51BFNjNG4Y3ozmdVaf9CZVO+60kBdHB+5Z/PYVYs1HAjuxXQSPOFIIIBJhHdolpjNqxNMb9Q+NK8VYO9o6HiDhiAUg91q+NnPkumsH0/Ve8DoDGrTAGAwc1AsDwNS1yjK5txcSRWWVSRzYEHZyRRFJnpc3okj/NPBSAjG2rYDUCBwXyT/htgITnJ+bRoD4AJaiZksUwrUFhjqqK09RgLPXMx5/rFdUtNDeLiwswgFStjbiaEZhdHA7zMaiqAAhR2ZMJjVkFP2ktjZIsqXk4vyegKIKEwXi93zQAUiipdpcgAm7N24jmY+aJ6VM8LFgVgqrIrB1gNb3MNUcp1EQ3ImtAxKoSJhKZeqAHo+rep6RYDUG6zJ3UqDUC3uVe1n07nqCwqOAJGVOil3X4GAHk/d8r8AKDgr9cgCWDiIxkvkgCFAYgpmQGXML/TOeIxI2gNTt15MkQeaaOxMi0toajN9HBO9a8MgFysK+ve+WqXIoAukJ2DFPHtwj5iUGSbC0JHyPUbgO6D+/7yCxeR1hTqcivaK6eHUwFUxNdDBakBJhUiplBa3NAkttB7YAByyFrI6u6G0WIPazYFkI2rU9X9Zte7NiU+BqgEyEpMDECeQwk1eXtgSLCMUxAeABgdq2pQ9gUBzWrj9sSoTA75yj25BiHkjffE+FsO1WZ7MV8K9Gcvtg+nXryt31jT2oOS2Vix3YNsbyx8aaEMPnH5aDzlzVxJ00u+nqKy2lnjG4Trc9ggvAiniD2sx4Irjch6LpWk+sWBUblFyLFsLmJpmt/z9SwQ4Xl4vVQS+XqqhgzqmjMHQwMSm1tHRlB0Gz2eoR6Yrado29AU7uaKnaGev8szmNiQsPL16BFqx8XlhVQNxD9Qg9bdyKTKiwtPOrRoqHBzmr680FjUC1UCx9noShWN7VwI6LeuD6WDZgEoJOd9RqKBJm5QrhreNQCpFHOxJfK/B+roHMoS9sBLFvuzvA6H2ERVO7M7XjOnH4HgUEjOzkGqDPZF0C8K6oWL3cM5cODSfHIJUW9OO5lPLuHdXbkvqGtIzuk4N07qS1cMUfesPQTuUhB/b+HgCuZ4+gyUqDCFSsFTK2yiok0u7BZ1bQkwX5AizmMG1pI5ExZq1w2APnkOHZpcZOnJiACgKzpDv6I58fgLWW/c2lhaMXYI/S2sr/JtnQog8jKaxrTXxObAEToi18Q73YNbZAAsBKoh9DfwTnsJWVMAZYbtTkvnkQFIVbauzYEGoJaAFoO8A1+67vALrO69ITrECmmCQH0V+rtoNF0BQDfOmWEI8mKnRSgfNAD2IG+tpFtcI+ZNnwFA5+DuqQgfZ/PiuVW8DiOERyv31mpdhadxaU/PGMXDelIAKQQiM8pdUu9xcZFRiJfdW+berFexvk3WeH1gahYmk/micxDmRttZtcHP81+Yz5JKfc+vkZnSihBP4FEFrRZIzYnhjZw0jDUvG11SAJAZjIMB5sBr73VnRQEYUQiN0B5w5y58LXXggvIyQplAx13yTrutAIple2eMvENDL7IuvfkGIAXfgp9nAApNtxHuQsU6zJ7UTZpMno3a6klzsV1fajfnLRz2jqlGAJUveWfMUABdaC/DkW29aHSpaqR8+A0lg0JHhmesKKG1lBZ6+w4ltZNaZn8rAlR9aaOipIZXU6/Hy++oZquqEzMmutwrhzrMiU7M3KEEa2BZpbdaNwUQLfRW66EAbOYuyoXvGau3DkAA0DuMEQo3ucJwxBLdjh1KI6t9cOeP7vTUAKP9JkbkQ82WV3FRtWoOu8R9/i1WPjdMyrUWDq5xKj9pvnY09BhqGBg1GnbG1JueuwEqhyWXJuW8zJjMbqi1GZXtdNahXYO73XLogbqo3jauoe9Q8D4Ym5ExR16yTmX3OdxpzmobwdK6ZK6SzCFfO7gO0wBiUAare+d8UwGYJyxKTjrnAHxbhwLwpLsq43uD0DuSqD1QC3POeYdGl8WTl7KmkE1TUZK6hFhJn9jX6KmY0OhCYTRj90J0vXyAnPqiN65zYKJ2tXGdC8rrDN09HZmAaT5tj+uoyLxaVc6hcfvDVB+3szLuSRMIV71osY+LOzL6CN1uF2GAUDbYK9ZVjuDS+EQSJrpidjsP8Bmh18D7GimcWTWG2wtGuufQgGnPmMs3CicF5f2ierOo09R5nIjxVm384s76FWYo9AvuvZRr9ITO684KaJyv26FioPEciF1D3ztP8fL6oKQAStntpuMd28QwS2w99lvOjyT3oXEQwQDaDT1QWne4cY0jrDtkTVpHL2uHXgNvxaf5A6Fs0JQntgM19eMaD45ZoUyqMSObOwxSLZj5MSWg0wEKGvYZXPx2kb0K7XEGoHeIw2PbRfYq6+Sle3HwOx9IzyEjXzJNqjNFON3VQgt4S+hPt9A/5Jab4ktRWrnZv4bRlu1i3FTRYrKW8KRjNLQl7lXuYWQWF6OUHIZybYy/G2+V3FLlyl6j0pJBqBxhznHc1OIbp7vqg4i+JYR9H9LzJkQuevJilFIJo5pZ1Wctnais6bOGNSt3DmVluJWr7sNwOifVuD86auoiOqF8uN5qDl9rozCkrfJscA1dVx6C6wKXFUC6KIf2+8o2Ibcwo62gIcyhur0Wnr+cwjzxzFWPoTK8ssb2uj75hYSBgxJmFtYLfVpezPujvp7aw0knjimFqevlchqXWP+yMYPbgg9dNjoZLXR7eN0S+W5Jg+NlcVajqpnyYZNszCUCagAMmSbNQvs0ciIkVUv8fNw5O3s6onZiYtyj83Jwg5s3spKqwhVv5h1K3XDhzqHZ1GH1Wm6ey6uyxHOmvPtS3qFhrbd33XQF4DvEC1Q5WRRaRO+Ff2/fQV668FSDEYYRF241Cva/ZGSS3o08FIAfj4jizeOOZ4iAFq4KGPHzGhvLOEbVuToGIO/wPirlBuCWr741sJwvaFjoBrz3E78GhBbIzHMTeih2ydyf3JNG3jJ3QLcZZs8PHoIbviuSebKbO15hbjvOc1laqpi5BbKG6UOZW9drfjXdHozi/dsUDwDkGi0cHJfuuhsjosGlWTk+UkNy4p8I6ArAgUhx4H7jMvCk9Wi5oniH+mavC6fQnlq4XLhjMnwAoPDIzPClh4JR6BU+VpGxzj9+GCJz4U5WEp0TN3tVtT054YDNHL56YgD0HGYoxEcKYEpaG9zwgdz0SRUxHoHzA/2MDFFDP2MpX8Oofo0VNTglxj01qfzAggP3lPUzPlQZW0PB8eCoU9GijIt5d6HRgufrtxUGfaI/4sX3+pkmnD4RJqU0jNj2EcZkY3mSGX35+5xBHzWMQ8aJ7iMMDClYOTR2+MABytss4RsN2Ehj3HEIs+Po8dIwZ+aqoRK+DoLZ/NU1dJEx1LTCnAr+cId3OTRZT5Z+h+a8hPrH23WrrieTNzUPya1we2mC7eLvL/XR0tUYXakN5QDE3mrzEjr73lmn+4kDa7fS/IuvZKVQv5xQ4PaOG0SBrB2GvieMxe1Q5ZA46/Wt3z28XG//cf/I4k+ffvnl6zcaH/9//Sij/dPXDzrW7/8L);lineShape=1;shadow=0;sketch=0;" parent="nEPNqR9Pa5e6juEOV0MW-5" vertex="1">
          <mxGeometry x="18.02187500000003" y="14.545454545454541" width="8.541875000000001" height="50.9090909090909" as="geometry" />
        </mxCell>
        <mxCell id="nEPNqR9Pa5e6juEOV0MW-8" value="&lt;font style=&quot;font-size: 18px;&quot;&gt;P&lt;sub&gt;1&lt;/sub&gt;&lt;/font&gt;" style="whiteSpace=wrap;html=1;aspect=fixed;fillColor=#647687;fontColor=#ffffff;strokeColor=#314354;rounded=1;" parent="1" vertex="1">
          <mxGeometry x="980" y="190" width="80" height="80" as="geometry" />
        </mxCell>
        <mxCell id="nEPNqR9Pa5e6juEOV0MW-9" value="" style="group" parent="1" vertex="1" connectable="0">
          <mxGeometry x="1071" y="100" width="79" height="80" as="geometry" />
        </mxCell>
        <mxCell id="nEPNqR9Pa5e6juEOV0MW-10" value="&lt;font style=&quot;font-size: 18px;&quot;&gt;T&lt;sub&gt;2&lt;/sub&gt;&lt;/font&gt;" style="ellipse;whiteSpace=wrap;html=1;fillColor=#d5e8d4;verticalAlign=top;strokeColor=#82b366;" parent="nEPNqR9Pa5e6juEOV0MW-9" vertex="1">
          <mxGeometry width="79" height="80" as="geometry" />
        </mxCell>
        <mxCell id="nEPNqR9Pa5e6juEOV0MW-11" value="" style="shape=stencil(lZ1J0hzHDYVPw21FzsNalu+hCFEWw7KooCQPtzdgunp46P4quJPpfH9XZSKBh7E+1O9+//mH3z5+KOn3P758/vvHf3368Y+fP9S/fCjl068/f/zy6Q/7rw/1+w/1u58+f/n4ty+f//z1x6//+7cffKX/1z8+/9P/wr+/4vY6dnVUSf/5+i/pGPl///DXr+t/+fTr4/p69PK0Ph+pwvp0tC7ra3m/fs2jLllPz7Pa0fR5doL1+SjtaX05/+Hl+jmPtWR9n7C+HT3Lenqeaduxn9bXo8D7jnXUKus77P/o55+7r1+03rbjeT/bkWF93/r37UBgP/tQeWjH7LC+HvP5ffuRYP+7ne+W9f8XqJfr21J57vg8rR/9WR7GkWl9OUaX9QPkoe5jPD/PPNKG9ePoQ9bj369Hm0/rF//9pM+/UP7t5/ezPOwjwf748UxZ3+jv1yMlWb/g+U2dddE/6SggEHkdrSpggMbK9gbPT5RNBgcATCMUBWzYIwM00YmmhOCQs91xeenbtr0GmFBWBdAv2LbOANhw711NPctpNsUCu2T3ZGYFVJKMfeypgE6iXVVVGGCB7rW7Np9tR2Zl1NKRAqDAI7VwOw3QSb2MYxUFLALsIBqmwEihlmMmBTR4h96PNhSwQJb6OjXoDTDxkUbQSQboIHwjKA0DLBA+s5pVtnUdhczmDDRknQL/GrBV7xmAFNm8KZUbYKOamUWZnQEGUZ12MokbdUmoNeY40lIAGVsjU6KMDUCiMQM7NXqX4RdWUvri/BF2aWU9aSNsRHhWIEgGGAzYz2rGdGEGg7LqUYcC6OAMoJzTdCsD8lDAoG0t59+7Afq5De/OYScFTDrpHc6B9ZLJUq4KuBDvJYB5yu+7C6S7NNEo2p3OWwF0p03NCFkydlVI85WTnD4AiJz0uK23K/WOn4uqNLtKms/sw8oK6PBILWg+A0yyouOo4sKYXqJfqKfkPABIVZqdrk0BDUSjTvViDDDhkWpT+lMz6lb7v2cAkGjYuYphNwBZILuQolsNgFTa+NKzaNSColGS8lYDECMzEyh8yQDIjHt46YoEKzJjA5D2Nmq+mgI2/MI+T+m23lQr6THV3ZUd1nHu4G39QB49zyN6WL/g7+8gdxMdPt9RkYqFitvYoNAMA5DL57RlKIB8dBdUAWwMUtmmrqkAumyuHpoCGpyCCUHaCiC5s1dMRQEUuGlZr7N7H+DNtGB8DEDcyhR3/IVKsR67KUMBHR7JPIHSFUCsYdz84AcAKYwRHF3bt0K8JMQPDEDSajSjBsCEg4sRxsbhAKOs+Vk0WsGY4WrK0w1A0rqGOlgGoHdY63ziG4ADDjvrfTBA5biz8JLGins3pUqt8SMNNW+NQ5nbSEAAUKx3L6UZdgcbAXY46X7Gjt4BxOIaeSIiY4AhSmByPH+rd2+ATr+w1P1pCyOmvktLAYMsbjChpqkK7dJQUmwAEm+XpeeD6wm1xi5KM/otZvEakE4jewNkdE7WVN1qADrp1dVv7Tdq89bRlch7Of2bd866WFEDUKRodr1AvaBhjx6ZmRjyBMZSG2cAdLC62od+kV8pId9QjwnnYDZOor+9naz3XTxNH6mdOaB3HllvCiBVadIvNs4Am/yloUqgf2tc8/5W7zwyif4aYLNHJmrGPNkKsuQ0uymAlIC5IkOkdWIcxwPSTQHkGTtXD7+wwSiWYOOcQcEu3UNVDwAKmnj65FkZ942s0qOYVQEUts9BGQ/jrZQ+6Uqwxk1Y3jqJz480bknX14CpIY3BSeWS1QKZWsBcRTvzBg8AiuN4qKorgLS3eSi6SxUNu7m1QkMHZ6LtxolbZgBMtWZ1XQ2AyY2uQXUDUJTFFFkKAHJ2XVXKLjFJ7CHgYIBMLs3WMKUBCnkoQXsPpqFmsuZSAN1pM4pzKoByRjMrSbTfpCs6m4b4vAyBg7lCTgxAnuLcSn8MsEA0jM0IqzRXEGPk7QWA2My6GagHAAmfUTgpRRkTd8m8LIlrGIA039rq+NnZ40tvDbUaABMDS5OuHgRnQF4KwATN0EyzueQU8FpNr+jkBP4Kht0EntK6c4dHymjY51BFNjNG4Y3ozmdVaf9CZVO+60kBdHB+5Z/PYVYs1HAjuxXQSPOFIIIBJhHdolpjNqxNMb9Q+NK8VYO9o6HiDhiAUg91q+NnPkumsH0/Ve8DoDGrTAGAwc1AsDwNS1yjK5txcSRWWVSRzYEHZyRRFJnpc3okj/NPBSAjG2rYDUCBwXyT/htgITnJ+bRoD4AJaiZksUwrUFhjqqK09RgLPXMx5/rFdUtNDeLiwswgFStjbiaEZhdHA7zMaiqAAhR2ZMJjVkFP2ktjZIsqXk4vyegKIKEwXi93zQAUiipdpcgAm7N24jmY+aJ6VM8LFgVgqrIrB1gNb3MNUcp1EQ3ImtAxKoSJhKZeqAHo+rep6RYDUG6zJ3UqDUC3uVe1n07nqCwqOAJGVOil3X4GAHk/d8r8AKDgr9cgCWDiIxkvkgCFAYgpmQGXML/TOeIxI2gNTt15MkQeaaOxMi0toajN9HBO9a8MgFysK+ve+WqXIoAukJ2DFPHtwj5iUGSbC0JHyPUbgO6D+/7yCxeR1hTqcivaK6eHUwFUxNdDBakBJhUiplBa3NAkttB7YAByyFrI6u6G0WIPazYFkI2rU9X9Zte7NiU+BqgEyEpMDECeQwk1eXtgSLCMUxAeABgdq2pQ9gUBzWrj9sSoTA75yj25BiHkjffE+FsO1WZ7MV8K9Gcvtg+nXryt31jT2oOS2Vix3YNsbyx8aaEMPnH5aDzlzVxJ00u+nqKy2lnjG4Trc9ggvAiniD2sx4Irjch6LpWk+sWBUblFyLFsLmJpmt/z9SwQ4Xl4vVQS+XqqhgzqmjMHQwMSm1tHRlB0Gz2eoR6Yrado29AU7uaKnaGev8szmNiQsPL16BFqx8XlhVQNxD9Qg9bdyKTKiwtPOrRoqHBzmr680FjUC1UCx9noShWN7VwI6LeuD6WDZgEoJOd9RqKBJm5QrhreNQCpFHOxJfK/B+roHMoS9sBLFvuzvA6H2ERVO7M7XjOnH4HgUEjOzkGqDPZF0C8K6oWL3cM5cODSfHIJUW9OO5lPLuHdXbkvqGtIzuk4N07qS1cMUfesPQTuUhB/b+HgCuZ4+gyUqDCFSsFTK2yiok0u7BZ1bQkwX5AizmMG1pI5ExZq1w2APnkOHZpcZOnJiACgKzpDv6I58fgLWW/c2lhaMXYI/S2sr/JtnQog8jKaxrTXxObAEToi18Q73YNbZAAsBKoh9DfwTnsJWVMAZYbtTkvnkQFIVbauzYEGoJaAFoO8A1+67vALrO69ITrECmmCQH0V+rtoNF0BQDfOmWEI8mKnRSgfNAD2IG+tpFtcI+ZNnwFA5+DuqQgfZ/PiuVW8DiOERyv31mpdhadxaU/PGMXDelIAKQQiM8pdUu9xcZFRiJfdW+berFexvk3WeH1gahYmk/micxDmRttZtcHP81+Yz5JKfc+vkZnSihBP4FEFrRZIzYnhjZw0jDUvG11SAJAZjIMB5sBr73VnRQEYUQiN0B5w5y58LXXggvIyQplAx13yTrutAIple2eMvENDL7IuvfkGIAXfgp9nAApNtxHuQsU6zJ7UTZpMno3a6klzsV1fajfnLRz2jqlGAJUveWfMUABdaC/DkW29aHSpaqR8+A0lg0JHhmesKKG1lBZ6+w4ltZNaZn8rAlR9aaOipIZXU6/Hy++oZquqEzMmutwrhzrMiU7M3KEEa2BZpbdaNwUQLfRW66EAbOYuyoXvGau3DkAA0DuMEQo3ucJwxBLdjh1KI6t9cOeP7vTUAKP9JkbkQ82WV3FRtWoOu8R9/i1WPjdMyrUWDq5xKj9pvnY09BhqGBg1GnbG1JueuwEqhyWXJuW8zJjMbqi1GZXtdNahXYO73XLogbqo3jauoe9Q8D4Ym5ExR16yTmX3OdxpzmobwdK6ZK6SzCFfO7gO0wBiUAare+d8UwGYJyxKTjrnAHxbhwLwpLsq43uD0DuSqD1QC3POeYdGl8WTl7KmkE1TUZK6hFhJn9jX6KmY0OhCYTRj90J0vXyAnPqiN65zYKJ2tXGdC8rrDN09HZmAaT5tj+uoyLxaVc6hcfvDVB+3szLuSRMIV71osY+LOzL6CN1uF2GAUDbYK9ZVjuDS+EQSJrpidjsP8Bmh18D7GimcWTWG2wtGuufQgGnPmMs3CicF5f2ierOo09R5nIjxVm384s76FWYo9AvuvZRr9ITO684KaJyv26FioPEciF1D3ztP8fL6oKQAStntpuMd28QwS2w99lvOjyT3oXEQwQDaDT1QWne4cY0jrDtkTVpHL2uHXgNvxaf5A6Fs0JQntgM19eMaD45ZoUyqMSObOwxSLZj5MSWg0wEKGvYZXPx2kb0K7XEGoHeIw2PbRfYq6+Sle3HwOx9IzyEjXzJNqjNFON3VQgt4S+hPt9A/5Jab4ktRWrnZv4bRlu1i3FTRYrKW8KRjNLQl7lXuYWQWF6OUHIZybYy/G2+V3FLlyl6j0pJBqBxhznHc1OIbp7vqg4i+JYR9H9LzJkQuevJilFIJo5pZ1Wctnais6bOGNSt3DmVluJWr7sNwOifVuD86auoiOqF8uN5qDl9rozCkrfJscA1dVx6C6wKXFUC6KIf2+8o2Ibcwo62gIcyhur0Wnr+cwjzxzFWPoTK8ssb2uj75hYSBgxJmFtYLfVpezPujvp7aw0knjimFqevlchqXWP+yMYPbgg9dNjoZLXR7eN0S+W5Jg+NlcVajqpnyYZNszCUCagAMmSbNQvs0ciIkVUv8fNw5O3s6onZiYtyj83Jwg5s3spKqwhVv5h1K3XDhzqHZ1GH1Wm6ey6uyxHOmvPtS3qFhrbd33XQF4DvEC1Q5WRRaRO+Ff2/fQV668FSDEYYRF241Cva/ZGSS3o08FIAfj4jizeOOZ4iAFq4KGPHzGhvLOEbVuToGIO/wPirlBuCWr741sJwvaFjoBrz3E78GhBbIzHMTeih2ydyf3JNG3jJ3QLcZZs8PHoIbviuSebKbO15hbjvOc1laqpi5BbKG6UOZW9drfjXdHozi/dsUDwDkGi0cHJfuuhsjosGlWTk+UkNy4p8I6ArAgUhx4H7jMvCk9Wi5oniH+mavC6fQnlq4XLhjMnwAoPDIzPClh4JR6BU+VpGxzj9+GCJz4U5WEp0TN3tVtT054YDNHL56YgD0HGYoxEcKYEpaG9zwgdz0SRUxHoHzA/2MDFFDP2MpX8Oofo0VNTglxj01qfzAggP3lPUzPlQZW0PB8eCoU9GijIt5d6HRgufrtxUGfaI/4sX3+pkmnD4RJqU0jNj2EcZkY3mSGX35+5xBHzWMQ8aJ7iMMDClYOTR2+MABytss4RsN2Ehj3HEIs+Po8dIwZ+aqoRK+DoLZ/NU1dJEx1LTCnAr+cId3OTRZT5Z+h+a8hPrH23WrrieTNzUPya1we2mC7eLvL/XR0tUYXakN5QDE3mrzEjr73lmn+4kDa7fS/IuvZKVQv5xQ4PaOG0SBrB2GvieMxe1Q5ZA46/Wt3z28XG//cf/I4k+ffvnl6zcaH/9//Sij/dPXDzrW7/8L);lineShape=1;shadow=0;sketch=0;" parent="nEPNqR9Pa5e6juEOV0MW-9" vertex="1">
          <mxGeometry x="18.02187500000003" y="14.545454545454541" width="8.541875000000001" height="50.9090909090909" as="geometry" />
        </mxCell>
        <mxCell id="nEPNqR9Pa5e6juEOV0MW-12" value="&lt;font style=&quot;font-size: 18px;&quot;&gt;P&lt;sub&gt;2&lt;/sub&gt;&lt;/font&gt;" style="whiteSpace=wrap;html=1;aspect=fixed;fillColor=#647687;fontColor=#ffffff;strokeColor=#314354;rounded=1;" parent="1" vertex="1">
          <mxGeometry x="1070" y="190" width="80" height="80" as="geometry" />
        </mxCell>
        <mxCell id="nEPNqR9Pa5e6juEOV0MW-13" value="" style="group" parent="1" vertex="1" connectable="0">
          <mxGeometry x="1161" y="100" width="79" height="80" as="geometry" />
        </mxCell>
        <mxCell id="nEPNqR9Pa5e6juEOV0MW-14" value="&lt;font style=&quot;font-size: 18px;&quot;&gt;T&lt;sub&gt;3&lt;/sub&gt;&lt;/font&gt;" style="ellipse;whiteSpace=wrap;html=1;fillColor=#d5e8d4;verticalAlign=top;strokeColor=#82b366;" parent="nEPNqR9Pa5e6juEOV0MW-13" vertex="1">
          <mxGeometry width="79" height="80" as="geometry" />
        </mxCell>
        <mxCell id="nEPNqR9Pa5e6juEOV0MW-15" value="" style="shape=stencil(lZ1J0hzHDYVPw21FzsNalu+hCFEWw7KooCQPtzdgunp46P4quJPpfH9XZSKBh7E+1O9+//mH3z5+KOn3P758/vvHf3368Y+fP9S/fCjl068/f/zy6Q/7rw/1+w/1u58+f/n4ty+f//z1x6//+7cffKX/1z8+/9P/wr+/4vY6dnVUSf/5+i/pGPl///DXr+t/+fTr4/p69PK0Ph+pwvp0tC7ra3m/fs2jLllPz7Pa0fR5doL1+SjtaX05/+Hl+jmPtWR9n7C+HT3Lenqeaduxn9bXo8D7jnXUKus77P/o55+7r1+03rbjeT/bkWF93/r37UBgP/tQeWjH7LC+HvP5ffuRYP+7ne+W9f8XqJfr21J57vg8rR/9WR7GkWl9OUaX9QPkoe5jPD/PPNKG9ePoQ9bj369Hm0/rF//9pM+/UP7t5/ezPOwjwf748UxZ3+jv1yMlWb/g+U2dddE/6SggEHkdrSpggMbK9gbPT5RNBgcATCMUBWzYIwM00YmmhOCQs91xeenbtr0GmFBWBdAv2LbOANhw711NPctpNsUCu2T3ZGYFVJKMfeypgE6iXVVVGGCB7rW7Np9tR2Zl1NKRAqDAI7VwOw3QSb2MYxUFLALsIBqmwEihlmMmBTR4h96PNhSwQJb6OjXoDTDxkUbQSQboIHwjKA0DLBA+s5pVtnUdhczmDDRknQL/GrBV7xmAFNm8KZUbYKOamUWZnQEGUZ12MokbdUmoNeY40lIAGVsjU6KMDUCiMQM7NXqX4RdWUvri/BF2aWU9aSNsRHhWIEgGGAzYz2rGdGEGg7LqUYcC6OAMoJzTdCsD8lDAoG0t59+7Afq5De/OYScFTDrpHc6B9ZLJUq4KuBDvJYB5yu+7C6S7NNEo2p3OWwF0p03NCFkydlVI85WTnD4AiJz0uK23K/WOn4uqNLtKms/sw8oK6PBILWg+A0yyouOo4sKYXqJfqKfkPABIVZqdrk0BDUSjTvViDDDhkWpT+lMz6lb7v2cAkGjYuYphNwBZILuQolsNgFTa+NKzaNSColGS8lYDECMzEyh8yQDIjHt46YoEKzJjA5D2Nmq+mgI2/MI+T+m23lQr6THV3ZUd1nHu4G39QB49zyN6WL/g7+8gdxMdPt9RkYqFitvYoNAMA5DL57RlKIB8dBdUAWwMUtmmrqkAumyuHpoCGpyCCUHaCiC5s1dMRQEUuGlZr7N7H+DNtGB8DEDcyhR3/IVKsR67KUMBHR7JPIHSFUCsYdz84AcAKYwRHF3bt0K8JMQPDEDSajSjBsCEg4sRxsbhAKOs+Vk0WsGY4WrK0w1A0rqGOlgGoHdY63ziG4ADDjvrfTBA5biz8JLGins3pUqt8SMNNW+NQ5nbSEAAUKx3L6UZdgcbAXY46X7Gjt4BxOIaeSIiY4AhSmByPH+rd2+ATr+w1P1pCyOmvktLAYMsbjChpqkK7dJQUmwAEm+XpeeD6wm1xi5KM/otZvEakE4jewNkdE7WVN1qADrp1dVv7Tdq89bRlch7Of2bd866WFEDUKRodr1AvaBhjx6ZmRjyBMZSG2cAdLC62od+kV8pId9QjwnnYDZOor+9naz3XTxNH6mdOaB3HllvCiBVadIvNs4Am/yloUqgf2tc8/5W7zwyif4aYLNHJmrGPNkKsuQ0uymAlIC5IkOkdWIcxwPSTQHkGTtXD7+wwSiWYOOcQcEu3UNVDwAKmnj65FkZ942s0qOYVQEUts9BGQ/jrZQ+6Uqwxk1Y3jqJz480bknX14CpIY3BSeWS1QKZWsBcRTvzBg8AiuN4qKorgLS3eSi6SxUNu7m1QkMHZ6LtxolbZgBMtWZ1XQ2AyY2uQXUDUJTFFFkKAHJ2XVXKLjFJ7CHgYIBMLs3WMKUBCnkoQXsPpqFmsuZSAN1pM4pzKoByRjMrSbTfpCs6m4b4vAyBg7lCTgxAnuLcSn8MsEA0jM0IqzRXEGPk7QWA2My6GagHAAmfUTgpRRkTd8m8LIlrGIA039rq+NnZ40tvDbUaABMDS5OuHgRnQF4KwATN0EyzueQU8FpNr+jkBP4Kht0EntK6c4dHymjY51BFNjNG4Y3ozmdVaf9CZVO+60kBdHB+5Z/PYVYs1HAjuxXQSPOFIIIBJhHdolpjNqxNMb9Q+NK8VYO9o6HiDhiAUg91q+NnPkumsH0/Ve8DoDGrTAGAwc1AsDwNS1yjK5txcSRWWVSRzYEHZyRRFJnpc3okj/NPBSAjG2rYDUCBwXyT/htgITnJ+bRoD4AJaiZksUwrUFhjqqK09RgLPXMx5/rFdUtNDeLiwswgFStjbiaEZhdHA7zMaiqAAhR2ZMJjVkFP2ktjZIsqXk4vyegKIKEwXi93zQAUiipdpcgAm7N24jmY+aJ6VM8LFgVgqrIrB1gNb3MNUcp1EQ3ImtAxKoSJhKZeqAHo+rep6RYDUG6zJ3UqDUC3uVe1n07nqCwqOAJGVOil3X4GAHk/d8r8AKDgr9cgCWDiIxkvkgCFAYgpmQGXML/TOeIxI2gNTt15MkQeaaOxMi0toajN9HBO9a8MgFysK+ve+WqXIoAukJ2DFPHtwj5iUGSbC0JHyPUbgO6D+/7yCxeR1hTqcivaK6eHUwFUxNdDBakBJhUiplBa3NAkttB7YAByyFrI6u6G0WIPazYFkI2rU9X9Zte7NiU+BqgEyEpMDECeQwk1eXtgSLCMUxAeABgdq2pQ9gUBzWrj9sSoTA75yj25BiHkjffE+FsO1WZ7MV8K9Gcvtg+nXryt31jT2oOS2Vix3YNsbyx8aaEMPnH5aDzlzVxJ00u+nqKy2lnjG4Trc9ggvAiniD2sx4Irjch6LpWk+sWBUblFyLFsLmJpmt/z9SwQ4Xl4vVQS+XqqhgzqmjMHQwMSm1tHRlB0Gz2eoR6Yrado29AU7uaKnaGev8szmNiQsPL16BFqx8XlhVQNxD9Qg9bdyKTKiwtPOrRoqHBzmr680FjUC1UCx9noShWN7VwI6LeuD6WDZgEoJOd9RqKBJm5QrhreNQCpFHOxJfK/B+roHMoS9sBLFvuzvA6H2ERVO7M7XjOnH4HgUEjOzkGqDPZF0C8K6oWL3cM5cODSfHIJUW9OO5lPLuHdXbkvqGtIzuk4N07qS1cMUfesPQTuUhB/b+HgCuZ4+gyUqDCFSsFTK2yiok0u7BZ1bQkwX5AizmMG1pI5ExZq1w2APnkOHZpcZOnJiACgKzpDv6I58fgLWW/c2lhaMXYI/S2sr/JtnQog8jKaxrTXxObAEToi18Q73YNbZAAsBKoh9DfwTnsJWVMAZYbtTkvnkQFIVbauzYEGoJaAFoO8A1+67vALrO69ITrECmmCQH0V+rtoNF0BQDfOmWEI8mKnRSgfNAD2IG+tpFtcI+ZNnwFA5+DuqQgfZ/PiuVW8DiOERyv31mpdhadxaU/PGMXDelIAKQQiM8pdUu9xcZFRiJfdW+berFexvk3WeH1gahYmk/micxDmRttZtcHP81+Yz5JKfc+vkZnSihBP4FEFrRZIzYnhjZw0jDUvG11SAJAZjIMB5sBr73VnRQEYUQiN0B5w5y58LXXggvIyQplAx13yTrutAIple2eMvENDL7IuvfkGIAXfgp9nAApNtxHuQsU6zJ7UTZpMno3a6klzsV1fajfnLRz2jqlGAJUveWfMUABdaC/DkW29aHSpaqR8+A0lg0JHhmesKKG1lBZ6+w4ltZNaZn8rAlR9aaOipIZXU6/Hy++oZquqEzMmutwrhzrMiU7M3KEEa2BZpbdaNwUQLfRW66EAbOYuyoXvGau3DkAA0DuMEQo3ucJwxBLdjh1KI6t9cOeP7vTUAKP9JkbkQ82WV3FRtWoOu8R9/i1WPjdMyrUWDq5xKj9pvnY09BhqGBg1GnbG1JueuwEqhyWXJuW8zJjMbqi1GZXtdNahXYO73XLogbqo3jauoe9Q8D4Ym5ExR16yTmX3OdxpzmobwdK6ZK6SzCFfO7gO0wBiUAare+d8UwGYJyxKTjrnAHxbhwLwpLsq43uD0DuSqD1QC3POeYdGl8WTl7KmkE1TUZK6hFhJn9jX6KmY0OhCYTRj90J0vXyAnPqiN65zYKJ2tXGdC8rrDN09HZmAaT5tj+uoyLxaVc6hcfvDVB+3szLuSRMIV71osY+LOzL6CN1uF2GAUDbYK9ZVjuDS+EQSJrpidjsP8Bmh18D7GimcWTWG2wtGuufQgGnPmMs3CicF5f2ierOo09R5nIjxVm384s76FWYo9AvuvZRr9ITO684KaJyv26FioPEciF1D3ztP8fL6oKQAStntpuMd28QwS2w99lvOjyT3oXEQwQDaDT1QWne4cY0jrDtkTVpHL2uHXgNvxaf5A6Fs0JQntgM19eMaD45ZoUyqMSObOwxSLZj5MSWg0wEKGvYZXPx2kb0K7XEGoHeIw2PbRfYq6+Sle3HwOx9IzyEjXzJNqjNFON3VQgt4S+hPt9A/5Jab4ktRWrnZv4bRlu1i3FTRYrKW8KRjNLQl7lXuYWQWF6OUHIZybYy/G2+V3FLlyl6j0pJBqBxhznHc1OIbp7vqg4i+JYR9H9LzJkQuevJilFIJo5pZ1Wctnais6bOGNSt3DmVluJWr7sNwOifVuD86auoiOqF8uN5qDl9rozCkrfJscA1dVx6C6wKXFUC6KIf2+8o2Ibcwo62gIcyhur0Wnr+cwjzxzFWPoTK8ssb2uj75hYSBgxJmFtYLfVpezPujvp7aw0knjimFqevlchqXWP+yMYPbgg9dNjoZLXR7eN0S+W5Jg+NlcVajqpnyYZNszCUCagAMmSbNQvs0ciIkVUv8fNw5O3s6onZiYtyj83Jwg5s3spKqwhVv5h1K3XDhzqHZ1GH1Wm6ey6uyxHOmvPtS3qFhrbd33XQF4DvEC1Q5WRRaRO+Ff2/fQV668FSDEYYRF241Cva/ZGSS3o08FIAfj4jizeOOZ4iAFq4KGPHzGhvLOEbVuToGIO/wPirlBuCWr741sJwvaFjoBrz3E78GhBbIzHMTeih2ydyf3JNG3jJ3QLcZZs8PHoIbviuSebKbO15hbjvOc1laqpi5BbKG6UOZW9drfjXdHozi/dsUDwDkGi0cHJfuuhsjosGlWTk+UkNy4p8I6ArAgUhx4H7jMvCk9Wi5oniH+mavC6fQnlq4XLhjMnwAoPDIzPClh4JR6BU+VpGxzj9+GCJz4U5WEp0TN3tVtT054YDNHL56YgD0HGYoxEcKYEpaG9zwgdz0SRUxHoHzA/2MDFFDP2MpX8Oofo0VNTglxj01qfzAggP3lPUzPlQZW0PB8eCoU9GijIt5d6HRgufrtxUGfaI/4sX3+pkmnD4RJqU0jNj2EcZkY3mSGX35+5xBHzWMQ8aJ7iMMDClYOTR2+MABytss4RsN2Ehj3HEIs+Po8dIwZ+aqoRK+DoLZ/NU1dJEx1LTCnAr+cId3OTRZT5Z+h+a8hPrH23WrrieTNzUPya1we2mC7eLvL/XR0tUYXakN5QDE3mrzEjr73lmn+4kDa7fS/IuvZKVQv5xQ4PaOG0SBrB2GvieMxe1Q5ZA46/Wt3z28XG//cf/I4k+ffvnl6zcaH/9//Sij/dPXDzrW7/8L);lineShape=1;shadow=0;sketch=0;" parent="nEPNqR9Pa5e6juEOV0MW-13" vertex="1">
          <mxGeometry x="18.02187500000003" y="14.545454545454541" width="8.541875000000001" height="50.9090909090909" as="geometry" />
        </mxCell>
        <mxCell id="nEPNqR9Pa5e6juEOV0MW-16" value="&lt;font style=&quot;font-size: 18px;&quot;&gt;P&lt;sub&gt;3&lt;/sub&gt;&lt;/font&gt;" style="whiteSpace=wrap;html=1;aspect=fixed;fillColor=#647687;fontColor=#ffffff;strokeColor=#314354;rounded=1;" parent="1" vertex="1">
          <mxGeometry x="1160" y="190" width="80" height="80" as="geometry" />
        </mxCell>
        <mxCell id="nEPNqR9Pa5e6juEOV0MW-20" value="&lt;font style=&quot;font-size: 18px;&quot;&gt;P&lt;sub&gt;N-1&lt;/sub&gt;&lt;/font&gt;" style="whiteSpace=wrap;html=1;aspect=fixed;fillColor=#647687;fontColor=#ffffff;strokeColor=#314354;rounded=1;" parent="1" vertex="1">
          <mxGeometry x="1280" y="190" width="80" height="80" as="geometry" />
        </mxCell>
        <mxCell id="nEPNqR9Pa5e6juEOV0MW-21" value="..." style="text;html=1;strokeColor=none;fillColor=none;align=center;verticalAlign=middle;whiteSpace=wrap;rounded=0;fontSize=36;fontStyle=1" parent="1" vertex="1">
          <mxGeometry x="1230" y="210" width="60" height="30" as="geometry" />
        </mxCell>
        <mxCell id="nEPNqR9Pa5e6juEOV0MW-22" value="" style="endArrow=none;dashed=1;html=1;dashPattern=1 3;strokeWidth=2;rounded=0;" parent="1" source="nEPNqR9Pa5e6juEOV0MW-2" edge="1">
          <mxGeometry width="50" height="50" relative="1" as="geometry">
            <mxPoint x="960" y="110" as="sourcePoint" />
            <mxPoint x="1000" y="70" as="targetPoint" />
          </mxGeometry>
        </mxCell>
        <mxCell id="nEPNqR9Pa5e6juEOV0MW-23" value="" style="endArrow=none;dashed=1;html=1;dashPattern=1 3;strokeWidth=2;rounded=0;entryX=0;entryY=0;entryDx=0;entryDy=0;" parent="1" target="nEPNqR9Pa5e6juEOV0MW-2" edge="1">
          <mxGeometry width="50" height="50" relative="1" as="geometry">
            <mxPoint x="860" y="70" as="sourcePoint" />
            <mxPoint x="900" y="110" as="targetPoint" />
          </mxGeometry>
        </mxCell>
        <mxCell id="nEPNqR9Pa5e6juEOV0MW-25" value="&lt;font style=&quot;font-size: 16px;&quot;&gt;atomic_inc(C&lt;sub&gt;s&lt;/sub&gt;, 1)&lt;/font&gt;" style="text;html=1;strokeColor=none;fillColor=none;align=center;verticalAlign=middle;whiteSpace=wrap;rounded=0;" parent="1" vertex="1">
          <mxGeometry x="865.5" y="50" width="130" height="30" as="geometry" />
        </mxCell>
        <mxCell id="nEPNqR9Pa5e6juEOV0MW-26" value="" style="whiteSpace=wrap;html=1;aspect=fixed;fillColor=#FF2600;" parent="1" vertex="1">
          <mxGeometry x="1121" y="350" width="30" height="30" as="geometry" />
        </mxCell>
        <mxCell id="nEPNqR9Pa5e6juEOV0MW-27" value="C&lt;sub style=&quot;font-size: 16px;&quot;&gt;s&lt;/sub&gt;" style="text;html=1;align=center;verticalAlign=middle;resizable=0;points=[];autosize=1;strokeColor=none;fillColor=none;fontSize=16;" parent="1" vertex="1">
          <mxGeometry x="1090" y="350" width="40" height="40" as="geometry" />
        </mxCell>
        <mxCell id="nEPNqR9Pa5e6juEOV0MW-32" value="" style="endArrow=none;html=1;rounded=0;" parent="1" edge="1">
          <mxGeometry width="50" height="50" relative="1" as="geometry">
            <mxPoint x="1355" y="100" as="sourcePoint" />
            <mxPoint x="1435" y="100" as="targetPoint" />
          </mxGeometry>
        </mxCell>
        <mxCell id="nEPNqR9Pa5e6juEOV0MW-33" value="" style="endArrow=none;html=1;rounded=0;" parent="1" edge="1">
          <mxGeometry width="50" height="50" relative="1" as="geometry">
            <mxPoint x="1355" y="180" as="sourcePoint" />
            <mxPoint x="1435" y="180" as="targetPoint" />
          </mxGeometry>
        </mxCell>
        <mxCell id="nEPNqR9Pa5e6juEOV0MW-34" value="Threads" style="text;html=1;align=center;verticalAlign=middle;resizable=0;points=[];autosize=1;strokeColor=none;fillColor=none;rotation=-45;fontSize=18;" parent="1" vertex="1">
          <mxGeometry x="1354" y="118" width="90" height="40" as="geometry" />
        </mxCell>
        <mxCell id="nEPNqR9Pa5e6juEOV0MW-35" value="..." style="text;html=1;strokeColor=none;fillColor=none;align=center;verticalAlign=middle;whiteSpace=wrap;rounded=0;fontSize=36;fontStyle=1" parent="1" vertex="1">
          <mxGeometry x="1028" y="40" width="60" height="30" as="geometry" />
        </mxCell>
        <mxCell id="nEPNqR9Pa5e6juEOV0MW-42" value="" style="endArrow=none;dashed=1;html=1;dashPattern=1 3;strokeWidth=2;rounded=0;" parent="1" edge="1">
          <mxGeometry width="50" height="50" relative="1" as="geometry">
            <mxPoint x="1228.5" y="112" as="sourcePoint" />
            <mxPoint x="1270.5" y="70" as="targetPoint" />
          </mxGeometry>
        </mxCell>
        <mxCell id="nEPNqR9Pa5e6juEOV0MW-43" value="" style="endArrow=none;dashed=1;html=1;dashPattern=1 3;strokeWidth=2;rounded=0;entryX=0;entryY=0;entryDx=0;entryDy=0;" parent="1" edge="1">
          <mxGeometry width="50" height="50" relative="1" as="geometry">
            <mxPoint x="1130.5" y="70" as="sourcePoint" />
            <mxPoint x="1173.5" y="112" as="targetPoint" />
          </mxGeometry>
        </mxCell>
        <mxCell id="nEPNqR9Pa5e6juEOV0MW-44" value="&lt;font style=&quot;font-size: 16px;&quot;&gt;atomic_inc(C&lt;sub&gt;s&lt;/sub&gt;, 1)&lt;/font&gt;" style="text;html=1;strokeColor=none;fillColor=none;align=center;verticalAlign=middle;whiteSpace=wrap;rounded=0;" parent="1" vertex="1">
          <mxGeometry x="1136" y="50" width="130" height="30" as="geometry" />
        </mxCell>
        <mxCell id="nEPNqR9Pa5e6juEOV0MW-45" value="..." style="text;html=1;strokeColor=none;fillColor=none;align=center;verticalAlign=middle;whiteSpace=wrap;rounded=0;fontSize=36;fontStyle=1" parent="1" vertex="1">
          <mxGeometry x="1277" y="40" width="60" height="30" as="geometry" />
        </mxCell>
        <mxCell id="nEPNqR9Pa5e6juEOV0MW-46" value="" style="shape=link;html=1;rounded=0;" parent="1" edge="1">
          <mxGeometry width="100" relative="1" as="geometry">
            <mxPoint x="891" y="300" as="sourcePoint" />
            <mxPoint x="1360" y="300" as="targetPoint" />
          </mxGeometry>
        </mxCell>
        <mxCell id="nEPNqR9Pa5e6juEOV0MW-47" value="" style="shape=link;html=1;rounded=0;exitX=0.5;exitY=1;exitDx=0;exitDy=0;" parent="1" source="nEPNqR9Pa5e6juEOV0MW-4" edge="1">
          <mxGeometry width="100" relative="1" as="geometry">
            <mxPoint x="910" y="340" as="sourcePoint" />
            <mxPoint x="930" y="300" as="targetPoint" />
          </mxGeometry>
        </mxCell>
        <mxCell id="nEPNqR9Pa5e6juEOV0MW-49" value="" style="shape=link;html=1;rounded=0;exitX=0.5;exitY=1;exitDx=0;exitDy=0;" parent="1" source="nEPNqR9Pa5e6juEOV0MW-8" edge="1">
          <mxGeometry width="100" relative="1" as="geometry">
            <mxPoint x="1020.17" y="270" as="sourcePoint" />
            <mxPoint x="1020.17" y="300" as="targetPoint" />
          </mxGeometry>
        </mxCell>
        <mxCell id="nEPNqR9Pa5e6juEOV0MW-51" value="" style="shape=link;html=1;rounded=0;exitX=0.5;exitY=1;exitDx=0;exitDy=0;" parent="1" source="nEPNqR9Pa5e6juEOV0MW-12" edge="1">
          <mxGeometry width="100" relative="1" as="geometry">
            <mxPoint x="950" y="290" as="sourcePoint" />
            <mxPoint x="1110" y="300" as="targetPoint" />
          </mxGeometry>
        </mxCell>
        <mxCell id="nEPNqR9Pa5e6juEOV0MW-52" value="" style="shape=link;html=1;rounded=0;exitX=0.5;exitY=1;exitDx=0;exitDy=0;" parent="1" source="nEPNqR9Pa5e6juEOV0MW-16" edge="1">
          <mxGeometry width="100" relative="1" as="geometry">
            <mxPoint x="1120" y="280" as="sourcePoint" />
            <mxPoint x="1200" y="300" as="targetPoint" />
          </mxGeometry>
        </mxCell>
        <mxCell id="nEPNqR9Pa5e6juEOV0MW-53" value="" style="shape=link;html=1;rounded=0;exitX=0.5;exitY=1;exitDx=0;exitDy=0;" parent="1" source="nEPNqR9Pa5e6juEOV0MW-20" edge="1">
          <mxGeometry width="100" relative="1" as="geometry">
            <mxPoint x="1210" y="280" as="sourcePoint" />
            <mxPoint x="1320" y="300" as="targetPoint" />
          </mxGeometry>
        </mxCell>
        <mxCell id="nEPNqR9Pa5e6juEOV0MW-56" value="Memory" style="text;html=1;align=center;verticalAlign=middle;resizable=0;points=[];autosize=1;strokeColor=none;fillColor=none;rotation=-45;fontSize=18;" parent="1" vertex="1">
          <mxGeometry x="1354" y="338" width="90" height="40" as="geometry" />
        </mxCell>
        <mxCell id="nEPNqR9Pa5e6juEOV0MW-57" value="" style="endArrow=none;html=1;rounded=0;" parent="1" edge="1">
          <mxGeometry width="50" height="50" relative="1" as="geometry">
            <mxPoint x="1356" y="319" as="sourcePoint" />
            <mxPoint x="1435" y="319" as="targetPoint" />
          </mxGeometry>
        </mxCell>
        <mxCell id="nEPNqR9Pa5e6juEOV0MW-58" value="" style="endArrow=none;html=1;rounded=0;" parent="1" edge="1">
          <mxGeometry width="50" height="50" relative="1" as="geometry">
            <mxPoint x="1356" y="399" as="sourcePoint" />
            <mxPoint x="1435" y="399" as="targetPoint" />
          </mxGeometry>
        </mxCell>
        <mxCell id="y2IEpxbpjnsfD4eR_qGw-2" value="" style="group" parent="1" vertex="1" connectable="0">
          <mxGeometry x="1281" y="100" width="79" height="80" as="geometry" />
        </mxCell>
        <mxCell id="nEPNqR9Pa5e6juEOV0MW-18" value="&lt;font style=&quot;font-size: 18px;&quot;&gt;T&lt;sub&gt;N-1&lt;/sub&gt;&lt;/font&gt;" style="ellipse;whiteSpace=wrap;html=1;fillColor=#d5e8d4;verticalAlign=top;strokeColor=#82b366;" parent="y2IEpxbpjnsfD4eR_qGw-2" vertex="1">
          <mxGeometry width="79" height="80" as="geometry" />
        </mxCell>
        <mxCell id="nEPNqR9Pa5e6juEOV0MW-19" value="" style="shape=stencil(lZ1J0hzHDYVPw21FzsNalu+hCFEWw7KooCQPtzdgunp46P4quJPpfH9XZSKBh7E+1O9+//mH3z5+KOn3P758/vvHf3368Y+fP9S/fCjl068/f/zy6Q/7rw/1+w/1u58+f/n4ty+f//z1x6//+7cffKX/1z8+/9P/wr+/4vY6dnVUSf/5+i/pGPl///DXr+t/+fTr4/p69PK0Ph+pwvp0tC7ra3m/fs2jLllPz7Pa0fR5doL1+SjtaX05/+Hl+jmPtWR9n7C+HT3Lenqeaduxn9bXo8D7jnXUKus77P/o55+7r1+03rbjeT/bkWF93/r37UBgP/tQeWjH7LC+HvP5ffuRYP+7ne+W9f8XqJfr21J57vg8rR/9WR7GkWl9OUaX9QPkoe5jPD/PPNKG9ePoQ9bj369Hm0/rF//9pM+/UP7t5/ezPOwjwf748UxZ3+jv1yMlWb/g+U2dddE/6SggEHkdrSpggMbK9gbPT5RNBgcATCMUBWzYIwM00YmmhOCQs91xeenbtr0GmFBWBdAv2LbOANhw711NPctpNsUCu2T3ZGYFVJKMfeypgE6iXVVVGGCB7rW7Np9tR2Zl1NKRAqDAI7VwOw3QSb2MYxUFLALsIBqmwEihlmMmBTR4h96PNhSwQJb6OjXoDTDxkUbQSQboIHwjKA0DLBA+s5pVtnUdhczmDDRknQL/GrBV7xmAFNm8KZUbYKOamUWZnQEGUZ12MokbdUmoNeY40lIAGVsjU6KMDUCiMQM7NXqX4RdWUvri/BF2aWU9aSNsRHhWIEgGGAzYz2rGdGEGg7LqUYcC6OAMoJzTdCsD8lDAoG0t59+7Afq5De/OYScFTDrpHc6B9ZLJUq4KuBDvJYB5yu+7C6S7NNEo2p3OWwF0p03NCFkydlVI85WTnD4AiJz0uK23K/WOn4uqNLtKms/sw8oK6PBILWg+A0yyouOo4sKYXqJfqKfkPABIVZqdrk0BDUSjTvViDDDhkWpT+lMz6lb7v2cAkGjYuYphNwBZILuQolsNgFTa+NKzaNSColGS8lYDECMzEyh8yQDIjHt46YoEKzJjA5D2Nmq+mgI2/MI+T+m23lQr6THV3ZUd1nHu4G39QB49zyN6WL/g7+8gdxMdPt9RkYqFitvYoNAMA5DL57RlKIB8dBdUAWwMUtmmrqkAumyuHpoCGpyCCUHaCiC5s1dMRQEUuGlZr7N7H+DNtGB8DEDcyhR3/IVKsR67KUMBHR7JPIHSFUCsYdz84AcAKYwRHF3bt0K8JMQPDEDSajSjBsCEg4sRxsbhAKOs+Vk0WsGY4WrK0w1A0rqGOlgGoHdY63ziG4ADDjvrfTBA5biz8JLGins3pUqt8SMNNW+NQ5nbSEAAUKx3L6UZdgcbAXY46X7Gjt4BxOIaeSIiY4AhSmByPH+rd2+ATr+w1P1pCyOmvktLAYMsbjChpqkK7dJQUmwAEm+XpeeD6wm1xi5KM/otZvEakE4jewNkdE7WVN1qADrp1dVv7Tdq89bRlch7Of2bd866WFEDUKRodr1AvaBhjx6ZmRjyBMZSG2cAdLC62od+kV8pId9QjwnnYDZOor+9naz3XTxNH6mdOaB3HllvCiBVadIvNs4Am/yloUqgf2tc8/5W7zwyif4aYLNHJmrGPNkKsuQ0uymAlIC5IkOkdWIcxwPSTQHkGTtXD7+wwSiWYOOcQcEu3UNVDwAKmnj65FkZ942s0qOYVQEUts9BGQ/jrZQ+6Uqwxk1Y3jqJz480bknX14CpIY3BSeWS1QKZWsBcRTvzBg8AiuN4qKorgLS3eSi6SxUNu7m1QkMHZ6LtxolbZgBMtWZ1XQ2AyY2uQXUDUJTFFFkKAHJ2XVXKLjFJ7CHgYIBMLs3WMKUBCnkoQXsPpqFmsuZSAN1pM4pzKoByRjMrSbTfpCs6m4b4vAyBg7lCTgxAnuLcSn8MsEA0jM0IqzRXEGPk7QWA2My6GagHAAmfUTgpRRkTd8m8LIlrGIA039rq+NnZ40tvDbUaABMDS5OuHgRnQF4KwATN0EyzueQU8FpNr+jkBP4Kht0EntK6c4dHymjY51BFNjNG4Y3ozmdVaf9CZVO+60kBdHB+5Z/PYVYs1HAjuxXQSPOFIIIBJhHdolpjNqxNMb9Q+NK8VYO9o6HiDhiAUg91q+NnPkumsH0/Ve8DoDGrTAGAwc1AsDwNS1yjK5txcSRWWVSRzYEHZyRRFJnpc3okj/NPBSAjG2rYDUCBwXyT/htgITnJ+bRoD4AJaiZksUwrUFhjqqK09RgLPXMx5/rFdUtNDeLiwswgFStjbiaEZhdHA7zMaiqAAhR2ZMJjVkFP2ktjZIsqXk4vyegKIKEwXi93zQAUiipdpcgAm7N24jmY+aJ6VM8LFgVgqrIrB1gNb3MNUcp1EQ3ImtAxKoSJhKZeqAHo+rep6RYDUG6zJ3UqDUC3uVe1n07nqCwqOAJGVOil3X4GAHk/d8r8AKDgr9cgCWDiIxkvkgCFAYgpmQGXML/TOeIxI2gNTt15MkQeaaOxMi0toajN9HBO9a8MgFysK+ve+WqXIoAukJ2DFPHtwj5iUGSbC0JHyPUbgO6D+/7yCxeR1hTqcivaK6eHUwFUxNdDBakBJhUiplBa3NAkttB7YAByyFrI6u6G0WIPazYFkI2rU9X9Zte7NiU+BqgEyEpMDECeQwk1eXtgSLCMUxAeABgdq2pQ9gUBzWrj9sSoTA75yj25BiHkjffE+FsO1WZ7MV8K9Gcvtg+nXryt31jT2oOS2Vix3YNsbyx8aaEMPnH5aDzlzVxJ00u+nqKy2lnjG4Trc9ggvAiniD2sx4Irjch6LpWk+sWBUblFyLFsLmJpmt/z9SwQ4Xl4vVQS+XqqhgzqmjMHQwMSm1tHRlB0Gz2eoR6Yrado29AU7uaKnaGev8szmNiQsPL16BFqx8XlhVQNxD9Qg9bdyKTKiwtPOrRoqHBzmr680FjUC1UCx9noShWN7VwI6LeuD6WDZgEoJOd9RqKBJm5QrhreNQCpFHOxJfK/B+roHMoS9sBLFvuzvA6H2ERVO7M7XjOnH4HgUEjOzkGqDPZF0C8K6oWL3cM5cODSfHIJUW9OO5lPLuHdXbkvqGtIzuk4N07qS1cMUfesPQTuUhB/b+HgCuZ4+gyUqDCFSsFTK2yiok0u7BZ1bQkwX5AizmMG1pI5ExZq1w2APnkOHZpcZOnJiACgKzpDv6I58fgLWW/c2lhaMXYI/S2sr/JtnQog8jKaxrTXxObAEToi18Q73YNbZAAsBKoh9DfwTnsJWVMAZYbtTkvnkQFIVbauzYEGoJaAFoO8A1+67vALrO69ITrECmmCQH0V+rtoNF0BQDfOmWEI8mKnRSgfNAD2IG+tpFtcI+ZNnwFA5+DuqQgfZ/PiuVW8DiOERyv31mpdhadxaU/PGMXDelIAKQQiM8pdUu9xcZFRiJfdW+berFexvk3WeH1gahYmk/micxDmRttZtcHP81+Yz5JKfc+vkZnSihBP4FEFrRZIzYnhjZw0jDUvG11SAJAZjIMB5sBr73VnRQEYUQiN0B5w5y58LXXggvIyQplAx13yTrutAIple2eMvENDL7IuvfkGIAXfgp9nAApNtxHuQsU6zJ7UTZpMno3a6klzsV1fajfnLRz2jqlGAJUveWfMUABdaC/DkW29aHSpaqR8+A0lg0JHhmesKKG1lBZ6+w4ltZNaZn8rAlR9aaOipIZXU6/Hy++oZquqEzMmutwrhzrMiU7M3KEEa2BZpbdaNwUQLfRW66EAbOYuyoXvGau3DkAA0DuMEQo3ucJwxBLdjh1KI6t9cOeP7vTUAKP9JkbkQ82WV3FRtWoOu8R9/i1WPjdMyrUWDq5xKj9pvnY09BhqGBg1GnbG1JueuwEqhyWXJuW8zJjMbqi1GZXtdNahXYO73XLogbqo3jauoe9Q8D4Ym5ExR16yTmX3OdxpzmobwdK6ZK6SzCFfO7gO0wBiUAare+d8UwGYJyxKTjrnAHxbhwLwpLsq43uD0DuSqD1QC3POeYdGl8WTl7KmkE1TUZK6hFhJn9jX6KmY0OhCYTRj90J0vXyAnPqiN65zYKJ2tXGdC8rrDN09HZmAaT5tj+uoyLxaVc6hcfvDVB+3szLuSRMIV71osY+LOzL6CN1uF2GAUDbYK9ZVjuDS+EQSJrpidjsP8Bmh18D7GimcWTWG2wtGuufQgGnPmMs3CicF5f2ierOo09R5nIjxVm384s76FWYo9AvuvZRr9ITO684KaJyv26FioPEciF1D3ztP8fL6oKQAStntpuMd28QwS2w99lvOjyT3oXEQwQDaDT1QWne4cY0jrDtkTVpHL2uHXgNvxaf5A6Fs0JQntgM19eMaD45ZoUyqMSObOwxSLZj5MSWg0wEKGvYZXPx2kb0K7XEGoHeIw2PbRfYq6+Sle3HwOx9IzyEjXzJNqjNFON3VQgt4S+hPt9A/5Jab4ktRWrnZv4bRlu1i3FTRYrKW8KRjNLQl7lXuYWQWF6OUHIZybYy/G2+V3FLlyl6j0pJBqBxhznHc1OIbp7vqg4i+JYR9H9LzJkQuevJilFIJo5pZ1Wctnais6bOGNSt3DmVluJWr7sNwOifVuD86auoiOqF8uN5qDl9rozCkrfJscA1dVx6C6wKXFUC6KIf2+8o2Ibcwo62gIcyhur0Wnr+cwjzxzFWPoTK8ssb2uj75hYSBgxJmFtYLfVpezPujvp7aw0knjimFqevlchqXWP+yMYPbgg9dNjoZLXR7eN0S+W5Jg+NlcVajqpnyYZNszCUCagAMmSbNQvs0ciIkVUv8fNw5O3s6onZiYtyj83Jwg5s3spKqwhVv5h1K3XDhzqHZ1GH1Wm6ey6uyxHOmvPtS3qFhrbd33XQF4DvEC1Q5WRRaRO+Ff2/fQV668FSDEYYRF241Cva/ZGSS3o08FIAfj4jizeOOZ4iAFq4KGPHzGhvLOEbVuToGIO/wPirlBuCWr741sJwvaFjoBrz3E78GhBbIzHMTeih2ydyf3JNG3jJ3QLcZZs8PHoIbviuSebKbO15hbjvOc1laqpi5BbKG6UOZW9drfjXdHozi/dsUDwDkGi0cHJfuuhsjosGlWTk+UkNy4p8I6ArAgUhx4H7jMvCk9Wi5oniH+mavC6fQnlq4XLhjMnwAoPDIzPClh4JR6BU+VpGxzj9+GCJz4U5WEp0TN3tVtT054YDNHL56YgD0HGYoxEcKYEpaG9zwgdz0SRUxHoHzA/2MDFFDP2MpX8Oofo0VNTglxj01qfzAggP3lPUzPlQZW0PB8eCoU9GijIt5d6HRgufrtxUGfaI/4sX3+pkmnD4RJqU0jNj2EcZkY3mSGX35+5xBHzWMQ8aJ7iMMDClYOTR2+MABytss4RsN2Ehj3HEIs+Po8dIwZ+aqoRK+DoLZ/NU1dJEx1LTCnAr+cId3OTRZT5Z+h+a8hPrH23WrrieTNzUPya1we2mC7eLvL/XR0tUYXakN5QDE3mrzEjr73lmn+4kDa7fS/IuvZKVQv5xQ4PaOG0SBrB2GvieMxe1Q5ZA46/Wt3z28XG//cf/I4k+ffvnl6zcaH/9//Sij/dPXDzrW7/8L);lineShape=1;shadow=0;sketch=0;" parent="y2IEpxbpjnsfD4eR_qGw-2" vertex="1">
          <mxGeometry x="14.021875000000136" y="14.545454545454547" width="8.541875000000001" height="50.9090909090909" as="geometry" />
        </mxCell>
        <mxCell id="hh42CivhFcUrtJSv-Wyx-1" value="" style="shape=link;html=1;rounded=0;" edge="1" parent="1">
          <mxGeometry width="100" relative="1" as="geometry">
            <mxPoint x="1126" y="300" as="sourcePoint" />
            <mxPoint x="1126" y="320" as="targetPoint" />
          </mxGeometry>
        </mxCell>
      </root>
    </mxGraphModel>
  </diagram>
</mxfile>
